<svg xmlns="http://www.w3.org/2000/svg" width="1280" height="640" viewBox="0 0 1280 640" role="img" aria-labelledby="title desc">
  <title id="title">IMPLANTA — Gestão de implantações orientada a valor</title>
  <desc id="desc">Capa em verde-petróleo e areia com indicadores de uma carteira de implantações.</desc>
  <rect width="1280" height="640" fill="#f7f4ed"/>
  <rect x="0" y="0" width="420" height="640" fill="#174b4b"/>
  <rect x="72" y="75" width="54" height="54" rx="15" fill="#9dc5a8"/>
  <path d="M88 102h22M99 91v22" stroke="#174b4b" stroke-width="6" stroke-linecap="round"/>
  <text x="145" y="112" fill="#fff" font-family="Arial,sans-serif" font-weight="800" font-size="30" letter-spacing="2">IMPLANTA</text>
  <text x="72" y="230" fill="#fff" font-family="Arial,sans-serif" font-weight="700" font-size="47">Do requisito</text>
  <text x="72" y="286" fill="#fff" font-family="Arial,sans-serif" font-weight="700" font-size="47">ao primeiro valor.</text>
  <text x="72" y="354" fill="#cfe1db" font-family="Arial,sans-serif" font-size="20">Operações · Projetos · Customer Success</text>
  <text x="72" y="520" fill="#9dc5a8" font-family="Arial,sans-serif" font-weight="700" font-size="18">PROTÓTIPO FUNCIONAL</text>
  <rect x="474" y="70" width="734" height="500" rx="24" fill="#fffdf9" stroke="#ddd8cc"/>
  <text x="520" y="125" fill="#20302f" font-family="Arial,sans-serif" font-weight="700" font-size="23">Visão geral da carteira</text>
  <g font-family="Arial,sans-serif">
    <rect x="520" y="160" width="190" height="112" rx="14" fill="#f2eee5"/><text x="542" y="194" fill="#657573" font-size="15">Implantações ativas</text><text x="542" y="244" fill="#174b4b" font-size="42" font-weight="700">7</text>
    <rect x="728" y="160" width="190" height="112" rx="14" fill="#f3ddda"/><text x="750" y="194" fill="#657573" font-size="15">Bloqueadas</text><text x="750" y="244" fill="#9b4542" font-size="42" font-weight="700">2</text>
    <rect x="936" y="160" width="226" height="112" rx="14" fill="#dceee2"/><text x="958" y="194" fill="#657573" font-size="15">Primeiro valor</text><text x="958" y="244" fill="#26746d" font-size="42" font-weight="700">3</text>
    <text x="520" y="322" fill="#20302f" font-size="17" font-weight="700">Fluxo da carteira</text>
    <text x="520" y="366" fill="#657573" font-size="14">Discovery</text><rect x="665" y="353" width="430" height="13" rx="7" fill="#eee9de"/><rect x="665" y="353" width="245" height="13" rx="7" fill="#9dc5a8"/>
    <text x="520" y="414" fill="#657573" font-size="14">Desenvolvimento</text><rect x="665" y="401" width="430" height="13" rx="7" fill="#eee9de"/><rect x="665" y="401" width="330" height="13" rx="7" fill="#9dc5a8"/>
    <text x="520" y="462" fill="#657573" font-size="14">Homologação</text><rect x="665" y="449" width="430" height="13" rx="7" fill="#eee9de"/><rect x="665" y="449" width="175" height="13" rx="7" fill="#9dc5a8"/>
    <text x="520" y="510" fill="#657573" font-size="14">Primeiro valor</text><rect x="665" y="497" width="430" height="13" rx="7" fill="#eee9de"/><rect x="665" y="497" width="290" height="13" rx="7" fill="#26746d"/>
  </g>
</svg>
